<?xml version="1.0" standalone="no"?><!DOCTYPE svg PUBLIC "-//W3C//DTD SVG 1.1//EN" "http://www.w3.org/Graphics/SVG/1.1/DTD/svg11.dtd"><svg t="1716974346250" class="icon" viewBox="0 0 1024 1024" version="1.1" xmlns="http://www.w3.org/2000/svg" p-id="15655" xmlns:xlink="http://www.w3.org/1999/xlink" width="200" height="200"><path d="M1021.155556 214.619022v3.1232c0 22.607644-18.494578 41.107911-41.107912 41.107911H43.952356C21.344711 258.850133 2.844444 240.355556 2.844444 217.742222v-3.1232c0-22.607644 18.494578-41.107911 41.107912-41.107911h936.100977c22.607644 0 41.102222 18.494578 41.102223 41.107911zM1024 809.107911v3.1232c0 22.607644-18.494578 41.107911-41.107911 41.107911H46.7968C24.183467 853.333333 5.688889 834.838756 5.688889 812.225422v-3.1232C5.688889 786.494578 24.183467 768 46.7968 768h936.100978c22.607644 0 41.102222 18.494578 41.102222 41.107911zM1024 513.285689v3.1232c0 22.607644-18.494578 41.107911-41.107911 41.107911H46.7968C24.183467 557.511111 5.688889 539.016533 5.688889 516.4032v-3.1232C5.688889 490.672356 24.183467 472.177778 46.7968 472.177778h936.100978c22.607644 0 41.102222 18.494578 41.102222 41.107911z" fill="#29ABE2" p-id="15656"></path></svg>