<?xml version="1.0" standalone="no"?><!DOCTYPE svg PUBLIC "-//W3C//DTD SVG 1.1//EN" "http://www.w3.org/Graphics/SVG/1.1/DTD/svg11.dtd"><svg t="1716972933203" class="icon" viewBox="0 0 1024 1024" version="1.1" xmlns="http://www.w3.org/2000/svg" p-id="6082" xmlns:xlink="http://www.w3.org/1999/xlink" width="200" height="200"><path d="M928 736H96c-35.2 0-64-28.8-64-64s28.8-64 64-64h832c35.2 0 64 28.8 64 64s-28.8 64-64 64z" fill="#E0EBFE" p-id="6083"></path><path d="M960 896v-64a32 32 0 0 0-32-32H96a32 32 0 0 0-32 32v64c0 70.592 57.408 128 128 128h640c70.592 0 128-57.408 128-128zM128 896v-32h768v32c0 35.296-28.704 64-64 64H192c-35.296 0-64-28.704-64-64zM928 576H96c-52.928 0-96 43.072-96 96s43.072 96 96 96h832c52.928 0 96-43.072 96-96s-43.072-96-96-96z m0 128H96a32.032 32.032 0 0 1 0-64h832a32.032 32.032 0 0 1 0 64zM512 32C277.536 32 64 184.544 64 352a32 32 0 0 0 32 32h832.64a32 32 0 0 0 31.232-38.976C954.048 180.32 743.232 32 512 32zM131.904 320C158.272 210.176 315.008 96 512 96s353.728 114.176 380.096 224H131.904z" fill="#5465CF" p-id="6084"></path><path d="M352 224m-32 0a32 32 0 1 0 64 0 32 32 0 1 0-64 0Z" fill="#5465CF" p-id="6085"></path><path d="M544 160m-32 0a32 32 0 1 0 64 0 32 32 0 1 0-64 0Z" fill="#5465CF" p-id="6086"></path><path d="M704 256m-32 0a32 32 0 1 0 64 0 32 32 0 1 0-64 0Z" fill="#5465CF" p-id="6087"></path><path d="M32 480c15.456 0 22.4 6.72 36.64 21.888 16.64 17.76 39.456 42.112 83.296 42.112 43.872 0 66.688-24.32 83.36-42.112 14.208-15.2 21.12-21.888 36.608-21.888s22.4 6.72 36.64 21.888c16.64 17.76 39.456 42.112 83.296 42.112s66.656-24.32 83.328-42.112c14.208-15.2 21.12-21.888 36.608-21.888s22.4 6.72 36.64 21.888c16.64 17.76 39.456 42.112 83.296 42.112s66.656-24.32 83.328-42.112c14.208-15.2 21.12-21.888 36.64-21.888 15.552 0 22.464 6.72 36.736 21.888 16.672 17.792 39.52 42.112 83.424 42.112 43.872 0 66.72-24.32 83.424-42.08 14.24-15.2 21.216-21.92 36.736-21.92a32 32 0 1 0 0-64c-43.904 0-66.752 24.32-83.424 42.112-14.272 15.168-21.216 21.888-36.736 21.888s-22.496-6.72-36.736-21.92C818.4 440.32 795.52 416 751.68 416s-66.688 24.32-83.328 42.112c-14.24 15.2-21.152 21.888-36.64 21.888s-22.4-6.72-36.608-21.888c-16.64-17.76-39.488-42.112-83.328-42.112s-66.656 24.32-83.296 42.112c-14.24 15.2-21.152 21.888-36.64 21.888s-22.4-6.72-36.608-21.888C338.56 440.352 315.744 416 271.904 416s-66.656 24.32-83.296 42.112c-14.24 15.2-21.184 21.888-36.672 21.888-15.456 0-22.4-6.72-36.608-21.888C98.656 440.352 75.84 416 32 416a32 32 0 1 0 0 64z" fill="#5465CF" p-id="6088"></path></svg>